<?xml version="1.0" encoding="UTF-8"?>
<!-- Created with Inkscape (http://www.inkscape.org/) -->
<svg width="285mm" height="40mm" version="1.1" viewBox="0 0 285 40" xmlns="http://www.w3.org/2000/svg">
 <g fill="#5462eb" stroke-width=".21085" aria-label="Zauvijek Books">
  <path d="m26.644 2.4132v2.4695q0 0.52628-0.18217 1.0323-0.16193 0.50604-0.46555 0.95135l-13.845 19.776h14.048v5.2628h-22.751v-2.6314q0-0.46556 0.16193-0.91087 0.16193-0.46555 0.44531-0.85014l13.886-19.837h-13.359v-5.2628z"/>
  <path d="m44.254 31.905q-0.89063 0-1.3562-0.2429-0.44531-0.2429-0.74894-1.0121l-0.44531-1.1538q-0.78942 0.66797-1.5181 1.174-0.72869 0.50604-1.5181 0.87038-0.76918 0.3441-1.6598 0.50604-0.87038 0.18217-1.9432 0.18217-1.4371 0-2.6112-0.36435-1.174-0.38459-2.0039-1.1133-0.80966-0.72869-1.255-1.8015-0.44531-1.093-0.44531-2.5099 0-1.1133 0.56676-2.2873t1.9634-2.1254q1.3967-0.97159 3.7649-1.6193 2.3683-0.64773 5.9712-0.72869v-0.89063q0-1.842-0.76918-2.6516-0.74894-0.8299-2.1456-0.8299-1.1133 0-1.8217 0.2429-0.70845 0.2429-1.2752 0.54652-0.54652 0.30362-1.0728 0.54652t-1.255 0.2429q-0.64773 0-1.1133-0.30362-0.44531-0.32386-0.70845-0.78942l-1.1335-1.9634q1.9027-1.68 4.2102-2.4897 2.3278-0.8299 4.9794-0.8299 1.9027 0 3.4208 0.62749 1.5384 0.60724 2.5909 1.7205 1.0728 1.093 1.6396 2.6112 0.56676 1.5181 0.56676 3.3196v13.116zm-7.206-3.8256q1.2145 0 2.1254-0.42507 0.91087-0.42507 1.842-1.3764v-2.9148q-1.8825 0.08097-3.097 0.32386-1.2145 0.2429-1.9229 0.60724-0.70845 0.36435-0.99183 0.8299-0.26314 0.46556-0.26314 1.0121 0 1.0728 0.587 1.5181 0.587 0.42507 1.7205 0.42507z"/>
  <path d="m57.452 10.915v13.319q0 1.5586 0.70845 2.4087 0.70845 0.85014 2.0849 0.85014 1.0323 0 1.9229-0.42507 0.91087-0.42507 1.761-1.1942v-14.958h6.2749v20.99h-3.8864q-1.174 0-1.5384-1.0526l-0.38459-1.2145q-0.60724 0.587-1.255 1.0728-0.64773 0.46556-1.3967 0.80966-0.72869 0.32386-1.5788 0.50604-0.85014 0.20242-1.8622 0.20242-1.7205 0-3.0565-0.587-1.3157-0.60724-2.2266-1.68-0.91087-1.0728-1.3764-2.5302-0.46556-1.4574-0.46556-3.1982v-13.319z"/>
  <path d="m86.68 31.905h-5.7081l-8.1371-20.99h5.2223q0.66797 0 1.1133 0.32386 0.46556 0.30362 0.62749 0.76918l2.9148 9.4123q0.34411 1.1538 0.64773 2.2468 0.32386 1.093 0.54652 2.1861 0.22266-1.093 0.54652-2.1861t0.68821-2.2468l3.0362-9.4123q0.16193-0.46555 0.60724-0.76918 0.44531-0.32386 1.0526-0.32386h4.9794z"/>
  <path d="m103.93 10.915v20.99h-6.2749v-20.99zm0.7287-5.7486q0 0.74894-0.30363 1.4169-0.30362 0.64773-0.8299 1.1538-0.52628 0.4858-1.2347 0.78942-0.68821 0.28338-1.4776 0.28338-0.76918 0-1.4371-0.28338-0.66797-0.30362-1.1942-0.78942-0.50604-0.50604-0.80966-1.1538-0.28338-0.66797-0.28338-1.4169 0-0.76918 0.28338-1.4371 0.30362-0.66797 0.80966-1.174 0.52628-0.50604 1.1942-0.78942 0.66796-0.28338 1.4371-0.28338 0.78942 0 1.4776 0.28338 0.70845 0.28338 1.2347 0.78942t0.8299 1.174q0.30363 0.66797 0.30363 1.4371z"/>
  <path d="m115.46 10.915v21.031q0 1.4776-0.38459 2.7731-0.36434 1.3157-1.2347 2.2873-0.85014 0.99183-2.267 1.5586-1.3967 0.56676-3.4815 0.56676-0.76918 0-1.4372-0.10121-0.64773-0.08097-1.3562-0.26314l0.20242-3.2994q0.0405-0.42507 0.28338-0.62749 0.24289-0.20242 0.97159-0.20242 0.72869 0 1.1942-0.12145 0.46555-0.12145 0.72869-0.42507 0.28338-0.30362 0.38459-0.8299 0.12145-0.50604 0.12145-1.3157v-21.031zm0.7287-5.7486q0 0.74894-0.30363 1.4169-0.30362 0.64773-0.8299 1.1538-0.52628 0.4858-1.2347 0.78942-0.68821 0.28338-1.4776 0.28338-0.76917 0-1.4371-0.28338-0.66797-0.30362-1.1942-0.78942-0.50604-0.50604-0.80966-1.1538-0.28338-0.66797-0.28338-1.4169 0-0.76918 0.28338-1.4371 0.30362-0.66797 0.80966-1.174 0.52628-0.50604 1.1942-0.78942 0.66797-0.28338 1.4371-0.28338 0.78942 0 1.4776 0.28338 0.70845 0.28338 1.2347 0.78942t0.8299 1.174q0.30363 0.66797 0.30363 1.4371z"/>
  <path d="m129.43 10.591q2.0849 0 3.8054 0.64773 1.7408 0.64773 2.9755 1.8825 1.255 1.2347 1.9432 3.0362 0.70845 1.7813 0.70845 4.0483 0 0.70845-0.0607 1.1538t-0.22265 0.70845q-0.16193 0.26314-0.44532 0.36435-0.26313 0.10121-0.68821 0.10121h-12.104q0.30362 2.6314 1.5991 3.8256 1.2955 1.174 3.3398 1.174 1.093 0 1.8825-0.26314 0.78942-0.26314 1.3967-0.587 0.62748-0.32386 1.1335-0.587 0.52628-0.26314 1.093-0.26314 0.74894 0 1.1335 0.54652l1.8217 2.2468q-0.97159 1.1133-2.1051 1.8217-1.1133 0.68821-2.3075 1.093-1.174 0.38459-2.3682 0.52628-1.174 0.16193-2.2468 0.16193-2.2063 0-4.1495-0.70845-1.9229-0.72869-3.3803-2.1456-1.4371-1.4169-2.2873-3.522-0.8299-2.1051-0.8299-4.8984 0-2.1051 0.70845-3.9876 0.7287-1.8825 2.0646-3.2994 1.3562-1.4169 3.2589-2.2468 1.9229-0.8299 4.3317-0.8299zm0.12145 4.3317q-1.8015 0-2.8136 1.0323-1.0121 1.0121-1.3359 2.935h7.8335q0-0.74894-0.20241-1.4574-0.18218-0.70845-0.62749-1.255-0.42507-0.56676-1.1335-0.91087-0.70846-0.3441-1.7205-0.3441z"/>
  <path d="m148.74 1.6035v16.983h0.93111q0.58701 0 0.89063-0.16193 0.32386-0.16193 0.60724-0.587l3.9673-5.9105q0.3441-0.52628 0.80966-0.76918 0.48579-0.2429 1.2145-0.2429h5.7486l-5.4247 7.4691q-0.38459 0.52628-0.85014 0.93111-0.44531 0.40483-0.97159 0.72869 0.91086 0.68821 1.5788 1.8217l5.9105 10.04h-5.6676q-0.70845 0-1.2347-0.22266-0.50604-0.2429-0.8299-0.8299l-3.9673-7.4286q-0.28338-0.50604-0.587-0.64773-0.30362-0.16193-0.91087-0.16193h-1.2145v9.2908h-6.2749v-30.302z"/>
  <g fill="#fff">
   <path d="m174.69 31.905v-29.006h9.2504q2.6719 0 4.5948 0.52628 1.9432 0.52628 3.1779 1.4979 1.255 0.97159 1.842 2.3885 0.60724 1.3967 0.60724 3.1577 0 1.0728-0.3441 2.0646-0.32386 0.99183-1.0121 1.842-0.66797 0.85014-1.7003 1.5181-1.0121 0.66797-2.3885 1.093 3.1779 0.62749 4.7972 2.2873t1.6193 4.3722q0 1.842-0.68821 3.3601-0.66797 1.5181-1.9837 2.6112-1.2955 1.093-3.1982 1.7003-1.8825 0.587-4.3114 0.587zm3.9268-13.218v10.101h6.2749q1.68 0 2.8743-0.38459 1.2145-0.38459 1.9837-1.0728 0.78942-0.70845 1.1538-1.6598 0.36435-0.97159 0.36435-2.1254 0-2.2468-1.5991-3.5423-1.5788-1.3157-4.7972-1.3157zm0-2.7933h5.1818q1.6598 0 2.8743-0.36435t2.0039-1.0121q0.80966-0.64773 1.1942-1.5586 0.38459-0.93111 0.38459-2.0242 0-2.5504-1.5384-3.7447-1.5384-1.1942-4.777-1.1942h-5.3235z"/>
   <path d="m208.61 11.077q2.2468 0 4.0483 0.74894 1.8217 0.74894 3.0767 2.1254 1.2752 1.3764 1.9432 3.3398 0.68821 1.9432 0.68821 4.3519 0 2.429-0.68821 4.3722-0.66797 1.9432-1.9432 3.3196-1.255 1.3764-3.0767 2.1254-1.8015 0.72869-4.0483 0.72869t-4.0685-0.72869q-1.8015-0.74894-3.0767-2.1254-1.2752-1.3764-1.9634-3.3196t-0.68821-4.3722q0-2.4087 0.68821-4.3519 0.68821-1.9634 1.9634-3.3398 1.2752-1.3764 3.0767-2.1254 1.8217-0.74894 4.0685-0.74894zm0 18.298q3.0362 0 4.5341-2.0242 1.4979-2.0444 1.4979-5.6879 0-3.6637-1.4979-5.7081-1.4979-2.0444-4.5341-2.0444-1.5384 0-2.6719 0.52628t-1.9027 1.5181q-0.74894 0.99183-1.1335 2.4492-0.36435 1.4371-0.36435 3.2589t0.36435 3.2589q0.38458 1.4371 1.1335 2.429 0.76918 0.97159 1.9027 1.4979t2.6719 0.52628z"/>
   <path d="m231.12 11.077q2.2468 0 4.0483 0.74894 1.8217 0.74894 3.0767 2.1254 1.2752 1.3764 1.9432 3.3398 0.68821 1.9432 0.68821 4.3519 0 2.429-0.68821 4.3722-0.66797 1.9432-1.9432 3.3196-1.255 1.3764-3.0767 2.1254-1.8015 0.72869-4.0483 0.72869-2.2468 0-4.0685-0.72869-1.8015-0.74894-3.0767-2.1254-1.2752-1.3764-1.9634-3.3196t-0.68821-4.3722q0-2.4087 0.68821-4.3519 0.68821-1.9634 1.9634-3.3398 1.2752-1.3764 3.0767-2.1254 1.8217-0.74894 4.0685-0.74894zm0 18.298q3.0362 0 4.5341-2.0242 1.4979-2.0444 1.4979-5.6879 0-3.6637-1.4979-5.7081-1.4979-2.0444-4.5341-2.0444-1.5384 0-2.6719 0.52628-1.1335 0.52628-1.9027 1.5181-0.74893 0.99183-1.1335 2.4492-0.36435 1.4371-0.36435 3.2589t0.36435 3.2589q0.38459 1.4371 1.1335 2.429 0.76918 0.97159 1.9027 1.4979 1.1335 0.52628 2.6719 0.52628z"/>
   <path d="m249.08 2.0893v17.549h0.93111q0.40483 0 0.66797-0.10121 0.26314-0.12145 0.587-0.46556l6.4773-6.9428q0.30363-0.32386 0.60725-0.52628t0.80966-0.20242h3.2791l-7.5501 8.0359q-0.28338 0.34411-0.56676 0.60724-0.26314 0.26314-0.60725 0.46556 0.36435 0.2429 0.64773 0.56676 0.30363 0.30362 0.56676 0.70845l8.0156 10.121h-3.2386q-0.44531 0-0.76918-0.16193-0.30362-0.18217-0.587-0.54652l-6.7404-8.4002q-0.30362-0.42507-0.60725-0.54652-0.30362-0.14169-0.91086-0.14169h-1.0121v9.7969h-3.6232v-29.816z"/>
   <path d="m278.29 14.781q-0.2429 0.44531-0.74894 0.44531-0.30362 0-0.68821-0.22266-0.38459-0.22266-0.95135-0.4858-0.54652-0.28338-1.3157-0.50604-0.76918-0.2429-1.8217-0.2429-0.91087 0-1.6396 0.2429-0.7287 0.22266-1.255 0.62749-0.50604 0.40483-0.78942 0.95135-0.26314 0.52628-0.26314 1.1538 0 0.78942 0.44532 1.3157 0.46555 0.52628 1.2145 0.91087 0.74893 0.38459 1.7003 0.68821 0.95135 0.28338 1.9432 0.62749 1.0121 0.32386 1.9634 0.72869t1.7003 1.0121q0.74893 0.60724 1.1942 1.4979 0.46555 0.87038 0.46555 2.1051 0 1.4169-0.50604 2.6314-0.50603 1.1942-1.4979 2.0849-0.99183 0.87038-2.429 1.3764-1.4371 0.50604-3.3196 0.50604-2.1456 0-3.8864-0.68821-1.7408-0.70845-2.9553-1.8015l0.85014-1.3764q0.16193-0.26314 0.38459-0.40483 0.22266-0.14169 0.587-0.14169 0.36435 0 0.76918 0.28338t0.97159 0.62749q0.58701 0.34411 1.3967 0.62749 0.8299 0.28338 2.0646 0.28338 1.0526 0 1.842-0.26314 0.78942-0.28338 1.3157-0.74894 0.52628-0.46556 0.76918-1.0728 0.26314-0.60724 0.26314-1.2955 0-0.85014-0.46555-1.3967-0.44532-0.56676-1.1942-0.95135-0.74894-0.40483-1.7205-0.68821-0.95135-0.30362-1.9634-0.62749-0.99184-0.32386-1.9634-0.72869-0.95135-0.42507-1.7003-1.0526-0.74893-0.62749-1.2145-1.5384-0.44531-0.93111-0.44531-2.2468 0-1.174 0.4858-2.2468 0.48579-1.093 1.4169-1.9027 0.93111-0.8299 2.2873-1.3157t3.097-0.4858q2.0242 0 3.6232 0.64773 1.6193 0.62749 2.7933 1.7408z"/>
  </g>
 </g>
</svg>
